<svg width="243" height="35" viewBox="0 0 243 35" fill="none" xmlns="http://www.w3.org/2000/svg">
<path d="M25.806 10.0969C23.7474 10.0969 22.0887 10.817 20.8886 12.2285C20.0203 10.8074 18.5177 10.0969 16.4201 10.0969C14.6053 10.0969 13.1125 10.6154 11.971 11.6524L11.8929 10.3754H8V26.0354H12.1076V14.8497C12.6735 13.8415 13.6101 13.3518 14.9468 13.3518C16.6932 13.3518 17.5616 14.1584 17.6104 15.8098V26.045H21.718V15.4258C21.9033 14.8113 22.2351 14.312 22.7131 13.9279C23.1912 13.5535 23.8156 13.3614 24.5767 13.3614C25.5328 13.3614 26.2256 13.5631 26.6256 13.9663C27.0256 14.3696 27.2305 15.0321 27.2305 15.9346V26.0546H31.3381V15.8386C31.3186 13.9855 30.8502 12.5549 29.9429 11.5852C29.0257 10.6058 27.6305 10.1161 25.7865 10.1161L25.806 10.0969Z" fill="#3A1287"/>
<path d="M50.8023 10.0969C49.007 10.0969 47.4947 10.673 46.3142 11.806L46.2264 10.385H42.3334V26.045H46.441V15.0609C47.1142 13.9183 48.1094 13.3614 49.4656 13.3614C50.3925 13.3614 51.0657 13.5727 51.456 13.9759C51.856 14.3984 52.0609 15.0609 52.0609 15.9635V26.045H56.1685V15.7714C56.1099 12.0172 54.2952 10.1065 50.7925 10.1065L50.8023 10.0969Z" fill="#3A1287"/>
<path d="M69.2137 11.4508C68.1795 10.5482 66.8623 10.097 65.311 10.097C63.3011 10.097 61.6718 10.8459 60.4814 12.3149C59.3009 13.7647 58.696 15.7139 58.696 18.095C58.696 20.601 59.3009 22.6077 60.5009 24.0768C61.7108 25.565 63.3206 26.3139 65.2817 26.3139C66.9599 26.3139 68.3551 25.7954 69.4381 24.7681L69.5845 26.0355H73.331V4H69.2235V11.4508H69.2137ZM69.2137 15.0033V21.3787C68.5698 22.5213 67.5843 23.0782 66.2086 23.0782C65.1256 23.0782 64.3061 22.6846 63.7207 21.878C63.1158 21.0523 62.8133 19.8809 62.8133 18.3927C62.8133 16.6836 63.1158 15.397 63.7207 14.5713C64.3158 13.7551 65.1354 13.3615 66.2379 13.3615C67.6136 13.3615 68.5893 13.8992 69.2137 15.0129V15.0033Z" fill="#3A1287"/>
<path d="M84.7074 10.097C83.1073 10.097 81.7706 10.5674 80.7266 11.4892V4H76.619V26.0355H80.3656L80.512 24.7201C81.5755 25.7762 82.9999 26.3139 84.7366 26.3139C86.766 26.3139 88.3857 25.5746 89.5467 24.1248C90.6882 22.6942 91.2737 20.7546 91.2737 18.3543V18.1622C91.2737 15.6466 90.6883 13.6591 89.537 12.2477C88.3662 10.8171 86.7465 10.097 84.7074 10.097ZM87.1563 18.0662V18.4983C87.1368 20.0537 86.8343 21.2251 86.2489 21.974C85.6733 22.7134 84.883 23.0782 83.8195 23.0782C82.3463 23.0782 81.3315 22.4925 80.7266 21.2731V15.109C81.3315 13.928 82.3267 13.3519 83.7902 13.3519C84.8928 13.3519 85.7026 13.7263 86.2782 14.4945C86.8636 15.2722 87.1563 16.482 87.1563 18.0662Z" fill="#3A1287"/>
<path d="M101.244 10.0969C99.8392 10.0969 98.6879 10.6154 97.8098 11.6332L97.7415 10.3754H93.8095V26.0354H97.9171V15.4642C98.4635 14.3792 99.4782 13.8415 101.03 13.8415C101.517 13.8415 102.005 13.8799 102.464 13.9471L102.747 13.9951L102.766 10.3658L102.61 10.3082C102.239 10.1641 101.781 10.0969 101.234 10.0969H101.244Z" fill="#3A1287"/>
<path d="M122.192 20.7642C122.153 21.4363 121.87 21.9836 121.324 22.4445C120.777 22.8957 120.075 23.1358 119.236 23.1358C118.114 23.1358 117.284 22.7709 116.699 22.0124C116.104 21.2443 115.801 20.0537 115.801 18.4598V17.9126C115.811 16.3379 116.123 15.1569 116.719 14.408C117.314 13.6591 118.133 13.2942 119.236 13.2942C120.094 13.2942 120.777 13.5439 121.324 14.072C121.88 14.6 122.163 15.2529 122.202 16.0691V16.2899H126.114V16.0499C126.046 14.2832 125.383 12.8334 124.124 11.7388C122.875 10.6538 121.236 10.0969 119.265 10.0969C116.933 10.0969 115.07 10.8266 113.713 12.2573C112.367 13.6879 111.684 15.6082 111.684 17.9702V18.3254C111.684 20.8026 112.377 22.7709 113.733 24.1823C115.099 25.6034 116.962 26.3235 119.285 26.3235C120.485 26.3235 121.607 26.0738 122.641 25.5842C123.675 25.0945 124.514 24.4128 125.119 23.5583C125.724 22.7037 126.056 21.7724 126.105 20.793V20.553H122.212V20.7738L122.192 20.7642Z" fill="#3A1287"/>
<path d="M156.758 19.2953C156.339 18.6904 155.704 18.172 154.865 17.7495C154.036 17.3366 152.895 16.9718 151.451 16.6741C150.065 16.3861 149.138 16.098 148.699 15.8292C148.299 15.5796 148.104 15.2435 148.104 14.8018C148.104 14.293 148.319 13.8993 148.758 13.592C149.216 13.2752 149.821 13.1216 150.563 13.1216C151.353 13.1216 151.987 13.3232 152.455 13.7169C152.924 14.1105 153.148 14.5906 153.148 15.1859V15.4163H157.256V15.1859C157.256 13.6881 156.622 12.4495 155.383 11.5085C154.153 10.5772 152.534 10.1067 150.553 10.1067C148.699 10.1067 147.138 10.5676 145.928 11.4797C144.699 12.4015 144.074 13.5728 144.074 14.9459C144.074 16.5973 145.031 17.8743 146.923 18.7385C147.763 19.1225 148.826 19.4394 150.065 19.6794C151.265 19.9194 152.124 20.1883 152.631 20.4955C153.09 20.774 153.314 21.158 153.314 21.6957C153.314 22.1758 153.099 22.5503 152.67 22.8479C152.221 23.1552 151.529 23.3184 150.641 23.3184C149.753 23.3184 148.972 23.1167 148.416 22.7135C147.87 22.3198 147.587 21.7629 147.538 21.0236V20.8028H143.528V21.0332C143.528 21.9838 143.831 22.8863 144.435 23.7024C145.031 24.5186 145.879 25.1715 146.953 25.6323C148.016 26.0932 149.236 26.3237 150.592 26.3237C152.582 26.3237 154.221 25.882 155.47 25.0082C156.729 24.1153 157.373 22.9439 157.373 21.5037C157.373 20.6492 157.158 19.9098 156.748 19.2953H156.758Z" fill="#3A1287"/>
<path d="M142.709 10.3754H137.704L133.167 15.1953L132.464 16.0211V10.3754H128.357V26.0354H132.464V20.9466L133.801 19.6504L138.494 26.0354H143.284L136.484 16.962L142.709 10.3754Z" fill="#3A1287"/>
<path d="M38.9398 14.2544V10.3754H34.8225V26.0354H38.9398V16.9908L36.8812 14.2544H38.9398Z" fill="#3A1287"/>
<path d="M108.905 14.2544V10.3754H104.787V26.0354H108.905V16.9908L106.846 14.2544H108.905Z" fill="#3A1287"/>
<path d="M171.705 26H165.517V8.54545H171.756C173.511 8.54545 175.023 8.89489 176.29 9.59375C177.557 10.2869 178.531 11.2841 179.213 12.5852C179.901 13.8864 180.244 15.4432 180.244 17.2557C180.244 19.0739 179.901 20.6364 179.213 21.9432C178.531 23.25 177.551 24.2528 176.273 24.9517C175 25.6506 173.477 26 171.705 26ZM169.207 22.8381H171.551C172.642 22.8381 173.56 22.6449 174.304 22.2585C175.054 21.8665 175.616 21.2614 175.991 20.4432C176.372 19.6193 176.562 18.5568 176.562 17.2557C176.562 15.9659 176.372 14.9119 175.991 14.0938C175.616 13.2756 175.057 12.6733 174.312 12.2869C173.568 11.9006 172.651 11.7074 171.56 11.7074H169.207V22.8381ZM199.018 17.2727C199.018 19.1761 198.657 20.7955 197.935 22.1307C197.219 23.4659 196.242 24.4858 195.004 25.1903C193.771 25.8892 192.384 26.2386 190.844 26.2386C189.293 26.2386 187.901 25.8864 186.668 25.1818C185.435 24.4773 184.461 23.4574 183.745 22.1222C183.029 20.7869 182.671 19.1705 182.671 17.2727C182.671 15.3693 183.029 13.75 183.745 12.4148C184.461 11.0795 185.435 10.0625 186.668 9.36364C187.901 8.65909 189.293 8.30682 190.844 8.30682C192.384 8.30682 193.771 8.65909 195.004 9.36364C196.242 10.0625 197.219 11.0795 197.935 12.4148C198.657 13.75 199.018 15.3693 199.018 17.2727ZM195.276 17.2727C195.276 16.0398 195.092 15 194.722 14.1534C194.359 13.3068 193.844 12.6648 193.18 12.2273C192.515 11.7898 191.737 11.571 190.844 11.571C189.952 11.571 189.174 11.7898 188.509 12.2273C187.844 12.6648 187.327 13.3068 186.958 14.1534C186.594 15 186.413 16.0398 186.413 17.2727C186.413 18.5057 186.594 19.5455 186.958 20.392C187.327 21.2386 187.844 21.8807 188.509 22.3182C189.174 22.7557 189.952 22.9744 190.844 22.9744C191.737 22.9744 192.515 22.7557 193.18 22.3182C193.844 21.8807 194.359 21.2386 194.722 20.392C195.092 19.5455 195.276 18.5057 195.276 17.2727ZM217.152 14.6562H213.419C213.351 14.1733 213.212 13.7443 213.001 13.3693C212.791 12.9886 212.521 12.6648 212.192 12.3977C211.862 12.1307 211.482 11.9261 211.05 11.7841C210.624 11.642 210.161 11.571 209.661 11.571C208.757 11.571 207.97 11.7955 207.3 12.2443C206.629 12.6875 206.109 13.3352 205.74 14.1875C205.371 15.0341 205.186 16.0625 205.186 17.2727C205.186 18.517 205.371 19.5625 205.74 20.4091C206.115 21.2557 206.638 21.8949 207.308 22.3267C207.979 22.7585 208.754 22.9744 209.635 22.9744C210.129 22.9744 210.587 22.9091 211.007 22.7784C211.433 22.6477 211.811 22.4574 212.141 22.2074C212.47 21.9517 212.743 21.642 212.959 21.2784C213.18 20.9148 213.334 20.5 213.419 20.0341L217.152 20.0511C217.055 20.8523 216.814 21.625 216.428 22.3693C216.047 23.108 215.533 23.7699 214.885 24.3551C214.243 24.9347 213.476 25.3949 212.584 25.7358C211.697 26.071 210.695 26.2386 209.575 26.2386C208.018 26.2386 206.626 25.8864 205.399 25.1818C204.178 24.4773 203.212 23.4574 202.501 22.1222C201.797 20.7869 201.445 19.1705 201.445 17.2727C201.445 15.3693 201.803 13.75 202.518 12.4148C203.234 11.0795 204.206 10.0625 205.433 9.36364C206.661 8.65909 208.041 8.30682 209.575 8.30682C210.587 8.30682 211.524 8.44886 212.388 8.73295C213.257 9.01705 214.027 9.43182 214.697 9.97727C215.368 10.517 215.913 11.179 216.334 11.9631C216.76 12.7472 217.033 13.6449 217.152 14.6562ZM229.267 13.5653C229.199 12.8778 228.906 12.3437 228.389 11.9631C227.872 11.5824 227.17 11.392 226.284 11.392C225.682 11.392 225.173 11.4773 224.759 11.6477C224.344 11.8125 224.026 12.0426 223.804 12.3381C223.588 12.6335 223.48 12.9688 223.48 13.3438C223.469 13.6562 223.534 13.929 223.676 14.1619C223.824 14.3949 224.026 14.5966 224.281 14.767C224.537 14.9318 224.832 15.0767 225.168 15.2017C225.503 15.321 225.861 15.4233 226.241 15.5085L227.81 15.8835C228.571 16.054 229.27 16.2812 229.906 16.5653C230.543 16.8494 231.094 17.1989 231.56 17.6136C232.026 18.0284 232.386 18.517 232.642 19.0795C232.903 19.642 233.037 20.2869 233.043 21.0142C233.037 22.0824 232.764 23.0085 232.224 23.7926C231.69 24.571 230.918 25.1761 229.906 25.608C228.901 26.0341 227.688 26.2472 226.267 26.2472C224.858 26.2472 223.631 26.0312 222.585 25.5994C221.545 25.1676 220.733 24.5284 220.148 23.6818C219.568 22.8295 219.264 21.7756 219.236 20.5199H222.807C222.847 21.1051 223.014 21.5937 223.31 21.9858C223.611 22.3722 224.011 22.6648 224.511 22.8636C225.017 23.0568 225.588 23.1534 226.224 23.1534C226.849 23.1534 227.392 23.0625 227.852 22.8807C228.318 22.6989 228.679 22.446 228.935 22.1222C229.19 21.7983 229.318 21.4261 229.318 21.0057C229.318 20.6136 229.202 20.2841 228.969 20.017C228.741 19.75 228.406 19.5227 227.963 19.3352C227.526 19.1477 226.989 18.9773 226.352 18.8239L224.452 18.3466C222.98 17.9886 221.818 17.429 220.966 16.6676C220.114 15.9062 219.69 14.8807 219.696 13.5909C219.69 12.5341 219.972 11.6108 220.54 10.821C221.114 10.0312 221.901 9.41477 222.901 8.97159C223.901 8.52841 225.037 8.30682 226.31 8.30682C227.605 8.30682 228.736 8.52841 229.702 8.97159C230.673 9.41477 231.429 10.0312 231.969 10.821C232.509 11.6108 232.787 12.5256 232.804 13.5653H229.267Z" fill="#868686"/>
</svg>
